<svg xmlns="http://www.w3.org/2000/svg" xmlns:xlink="http://www.w3.org/1999/xlink" width="159.206" height="94.663" viewBox="0 0 159.206 94.663">
  <defs>
    <linearGradient id="linear-gradient" y1="0.5" x2="1" y2="0.5" gradientUnits="objectBoundingBox">
      <stop offset="0" stop-color="#039fff"/>
      <stop offset="1" stop-color="#ac08ff"/>
    </linearGradient>
  </defs>
  <path id="Tracé_14" data-name="Tracé 14" d="M150.36,28.838c1.516-4.552,3.835-9.913,7.038-13.141H131c-.436-.135-.892-.227-1.336-.348C128.224,13.081,118.4.308,79.153.308,36.077.308,28.443,15.7,28.443,15.7H.906c3.513,3.541,5.954,9.634,7.448,14.424A40.514,40.514,0,0,0,40.439,94.97,39.984,39.984,0,0,0,71.114,80.582l9.128,12.885,7.879-13.384a40.124,40.124,0,0,0,71.316-25.638A40.522,40.522,0,0,0,150.36,28.838ZM41.109,86.365a32.271,32.271,0,1,1,32.27-32.27A32.307,32.307,0,0,1,41.109,86.365ZM27.416,40.4a19.363,19.363,0,1,0,13.693-5.671A19.236,19.236,0,0,0,27.416,40.4Zm3.042,24.341a15.061,15.061,0,1,1,10.651,4.41,14.962,14.962,0,0,1-10.651-4.41Zm4.2-10.649a6.454,6.454,0,1,0,6.455-6.455A6.454,6.454,0,0,0,34.654,54.094Zm83.905,32.27a32.271,32.271,0,1,1,32.272-32.27A32.307,32.307,0,0,1,118.559,86.365ZM104.868,40.4a19.363,19.363,0,1,0,13.693-5.671A19.236,19.236,0,0,0,104.868,40.4Zm3.042,24.341a15.061,15.061,0,1,1,10.651,4.41,14.963,14.963,0,0,1-10.651-4.41Zm4.2-10.649a6.454,6.454,0,1,0,6.455-6.455A6.454,6.454,0,0,0,112.105,54.094ZM79.027,4.611c27.162,0,37.381,11.509,37.381,11.509S87.364,11.187,77.682,47.639C68,11.187,38.957,16.12,38.957,16.12S49.177,4.611,76.339,4.611Z" transform="translate(-0.231 -0.308)" fill-rule="evenodd" fill="url(#linear-gradient)"/>
</svg>
