<svg xmlns="http://www.w3.org/2000/svg" width="53" height="53" viewBox="0 0 53 53">
  <g id="family" transform="translate(4.953 1.794)">
    <circle id="Ellipse_8" data-name="Ellipse 8" cx="26.5" cy="26.5" r="26.5" transform="translate(-4.953 -1.794)" fill="#5293f1"/>
    <circle id="Ellipse_5" data-name="Ellipse 5" cx="2.643" cy="2.643" r="2.643" transform="translate(9.183 8)" fill="#fff"/>
    <circle id="Ellipse_6" data-name="Ellipse 6" cx="2.643" cy="2.643" r="2.643" transform="translate(20.51 8)" fill="#fff"/>
    <circle id="Ellipse_7" data-name="Ellipse 7" cx="1.888" cy="1.888" r="1.888" transform="translate(31.459 24.236)" fill="#fff"/>
    <path id="Tracé_7" data-name="Tracé 7" d="M37.425,42.954,36.1,39.783a3.653,3.653,0,0,0-1.963-1.359,5.139,5.139,0,0,0-.793-.076H31.459l-1.586-2.681a1.439,1.439,0,0,0,.038-.566L28.137,26.19a6.552,6.552,0,0,0-2.681-1.775A6.778,6.778,0,0,0,23.115,24a6.942,6.942,0,0,0-2.341.415,7.092,7.092,0,0,0-2.681,1.775l-.6,3.36-.68-3.36a6.552,6.552,0,0,0-2.681-1.775A6.778,6.778,0,0,0,11.788,24a6.942,6.942,0,0,0-2.341.415A7.092,7.092,0,0,0,6.766,26.19L5.067,35.1a1.119,1.119,0,0,0,.906,1.322.283.283,0,0,0,.189.038,1.1,1.1,0,0,0,1.095-.906l1.548-7.665V48.165H11.07V36.46h1.51v11.7h2.265V27.889l1.548,7.665a1.1,1.1,0,0,0,1.095.906h0a1.1,1.1,0,0,0,1.095-.906l1.548-7.665V32L18.7,39.141h1.435v9.024H22.4V39.1h1.51v9.062h2.265V39.141h1.435L26.173,32V27.889l1.548,7.665a1.086,1.086,0,0,0,.868.868l2.87,4.871v6.872h1.51V43.634h.755v4.531h1.51v-6.57l.831,1.963a.726.726,0,0,0,.68.453.454.454,0,0,0,.3-.076A.719.719,0,0,0,37.425,42.954Z" transform="translate(0 -9.959)" fill="#fff"/>
  </g>
</svg>
