<svg xmlns="http://www.w3.org/2000/svg" width="53.02" height="53.02" viewBox="0 0 53.02 53.02">
  <g id="public_relations" transform="translate(-2 -3)">
    <path id="Tracé_8" data-name="Tracé 8" d="M35.069,21.605V20.158a2.736,2.736,0,0,0-1.759-2.552,2.651,2.651,0,1,0-3.551,0A2.736,2.736,0,0,0,28,20.158v1.448A6.167,6.167,0,0,0,35.069,21.605Z" transform="translate(-3.025 -1.162)" fill="#5293f1"/>
    <path id="Tracé_9" data-name="Tracé 9" d="M33.31,49.606a2.651,2.651,0,1,0-3.551,0A2.736,2.736,0,0,0,28,52.158v1.448a6.167,6.167,0,0,0,7.069,0V52.158a2.736,2.736,0,0,0-1.759-2.552Z" transform="translate(-3.025 -4.884)" fill="#5293f1"/>
    <path id="Tracé_10" data-name="Tracé 10" d="M19.069,37.605V36.158a2.736,2.736,0,0,0-1.759-2.552,2.651,2.651,0,1,0-3.551,0A2.736,2.736,0,0,0,12,36.158v1.448a6.167,6.167,0,0,0,7.069,0Z" transform="translate(-1.163 -3.023)" fill="#5293f1"/>
    <path id="Tracé_11" data-name="Tracé 11" d="M51.069,37.605V36.158a2.736,2.736,0,0,0-1.759-2.552,2.651,2.651,0,1,0-3.551,0A2.736,2.736,0,0,0,44,36.158v1.448A6.167,6.167,0,0,0,51.069,37.605Z" transform="translate(-4.886 -3.023)" fill="#5293f1"/>
    <path id="Tracé_12" data-name="Tracé 12" d="M28.51,56.02A26.51,26.51,0,1,0,2,29.51,26.51,26.51,0,0,0,28.51,56.02Zm0-5.3a7.953,7.953,0,1,1,7.953-7.953A7.953,7.953,0,0,1,28.51,50.718ZM42.649,20.673A7.953,7.953,0,1,1,34.7,28.626,7.953,7.953,0,0,1,42.649,20.673ZM28.51,6.535a7.953,7.953,0,1,1-7.953,7.953A7.953,7.953,0,0,1,28.51,6.535ZM6.418,28.626a7.953,7.953,0,1,1,7.953,7.953,7.953,7.953,0,0,1-7.953-7.953Z" transform="translate(0)" fill="#5293f1"/>
  </g>
</svg>
