<svg xmlns="http://www.w3.org/2000/svg" width="52.892" height="52.892" viewBox="0 0 52.892 52.892">
  <g id="taxes" transform="translate(-1 -2)">
    <path id="Tracé_2" data-name="Tracé 2" d="M1,28.446A26.446,26.446,0,1,0,27.446,2,26.446,26.446,0,0,0,1,28.446Z" transform="translate(0 0)" fill="#5293f1"/>
    <g id="Coins" transform="translate(13.322 18.529)">
      <ellipse id="Ellipse_3" data-name="Ellipse 3" cx="5.686" cy="2.372" rx="5.686" ry="2.372" transform="translate(0.198)" fill="none" stroke="#fff" stroke-miterlimit="10" stroke-width="2"/>
      <ellipse id="Ellipse_4" data-name="Ellipse 4" cx="5.744" cy="2.405" rx="5.744" ry="2.405" transform="translate(16.686 10.669)" fill="none" stroke="#fff" stroke-miterlimit="10" stroke-width="2"/>
      <line id="Ligne_1" data-name="Ligne 1" y2="16.603" transform="translate(0.207 2.372)" fill="none" stroke="#fff" stroke-linecap="round" stroke-miterlimit="10" stroke-width="2"/>
      <path id="Tracé_3" data-name="Tracé 3" d="M27.523,24.87V41.506c0,1.314-2.545,2.372-5.686,2.372s-5.678-1.091-5.678-2.372" transform="translate(-15.953 -22.498)" fill="none" stroke="#fff" stroke-miterlimit="10" stroke-width="2"/>
      <path id="Tracé_4" data-name="Tracé 4" d="M27.48,38.3c0,1.314-2.57,2.372-5.785,2.372S15.91,39.606,15.91,38.3" transform="translate(-15.91 -24.829)" fill="none" stroke="#fff" stroke-miterlimit="10" stroke-width="2"/>
      <path id="Tracé_5" data-name="Tracé 5" d="M47.57,37.82v5.859c0,1.331-2.57,2.4-5.785,2.4S36,45.01,36,43.679V37.82" transform="translate(-19.397 -24.746)" fill="none" stroke="#fff" stroke-miterlimit="10" stroke-width="2"/>
      <path id="Tracé_6" data-name="Tracé 6" d="M27.5,31.37c0,1.314-2.57,2.372-5.785,2.372S16,32.717,16,31.37" transform="translate(-15.926 -23.626)" fill="none" stroke="#fff" stroke-miterlimit="10" stroke-width="2"/>
    </g>
  </g>
</svg>
